<mxfile host="Electron" modified="2023-04-02T17:15:45.233Z" agent="Mozilla/5.0 (Windows NT 10.0; Win64; x64) AppleWebKit/537.36 (KHTML, like Gecko) draw.io/21.1.2 Chrome/106.0.5249.199 Electron/21.4.3 Safari/537.36" etag="k9BOTa2PDAjZyuVAz9Je" version="21.1.2" type="device">
  <diagram name="Página-1" id="Wpv3ONrlwgS-dvRDXp02">
    <mxGraphModel dx="880" dy="1359" grid="1" gridSize="10" guides="1" tooltips="1" connect="1" arrows="1" fold="1" page="1" pageScale="1" pageWidth="1169" pageHeight="827" math="0" shadow="0">
      <root>
        <mxCell id="0" />
        <mxCell id="1" parent="0" />
        <mxCell id="-DtNOmE0JYOXHVZAhYg3-31" style="edgeStyle=orthogonalEdgeStyle;rounded=0;orthogonalLoop=1;jettySize=auto;html=1;strokeColor=#B266FF;" edge="1" parent="1" source="-DtNOmE0JYOXHVZAhYg3-30" target="-DtNOmE0JYOXHVZAhYg3-28">
          <mxGeometry relative="1" as="geometry">
            <Array as="points">
              <mxPoint x="1040" y="-394" />
              <mxPoint x="1040" y="-394" />
            </Array>
          </mxGeometry>
        </mxCell>
        <mxCell id="-DtNOmE0JYOXHVZAhYg3-45" style="edgeStyle=orthogonalEdgeStyle;rounded=0;orthogonalLoop=1;jettySize=auto;html=1;strokeColor=#B266FF;" edge="1" parent="1" source="-DtNOmE0JYOXHVZAhYg3-30" target="-DtNOmE0JYOXHVZAhYg3-44">
          <mxGeometry relative="1" as="geometry" />
        </mxCell>
        <mxCell id="-DtNOmE0JYOXHVZAhYg3-30" value="" style="rounded=1;whiteSpace=wrap;html=1;direction=south;fillColor=#e1d5e7;strokeColor=#9673a6;" vertex="1" parent="1">
          <mxGeometry x="1070" y="-482.5" width="100" height="392.5" as="geometry" />
        </mxCell>
        <mxCell id="-DtNOmE0JYOXHVZAhYg3-11" style="edgeStyle=orthogonalEdgeStyle;rounded=0;orthogonalLoop=1;jettySize=auto;html=1;startArrow=classic;startFill=1;" edge="1" parent="1" source="-DtNOmE0JYOXHVZAhYg3-8" target="-DtNOmE0JYOXHVZAhYg3-15">
          <mxGeometry relative="1" as="geometry" />
        </mxCell>
        <mxCell id="-DtNOmE0JYOXHVZAhYg3-8" value="App do cliente&lt;br&gt;Pesquisa + Reserva" style="rounded=1;whiteSpace=wrap;html=1;direction=south;dashed=1;fillColor=#d5e8d4;strokeColor=#82b366;" vertex="1" parent="1">
          <mxGeometry x="30" y="-470" width="130" height="240" as="geometry" />
        </mxCell>
        <mxCell id="-DtNOmE0JYOXHVZAhYg3-2" value="" style="dashed=0;html=1;shape=mxgraph.aws3.cloud;fillColor=#F58536;gradientColor=none;dashed=0;" vertex="1" parent="1">
          <mxGeometry x="80" y="-630" width="52" height="36" as="geometry" />
        </mxCell>
        <mxCell id="-DtNOmE0JYOXHVZAhYg3-9" style="edgeStyle=orthogonalEdgeStyle;rounded=0;orthogonalLoop=1;jettySize=auto;html=1;entryX=0;entryY=0.5;entryDx=0;entryDy=0;" edge="1" parent="1" source="-DtNOmE0JYOXHVZAhYg3-16" target="-DtNOmE0JYOXHVZAhYg3-8">
          <mxGeometry relative="1" as="geometry" />
        </mxCell>
        <mxCell id="-DtNOmE0JYOXHVZAhYg3-14" value="devices" style="sketch=0;outlineConnect=0;gradientColor=none;fontColor=#545B64;strokeColor=none;fillColor=#879196;dashed=0;verticalLabelPosition=bottom;verticalAlign=top;align=center;html=1;fontSize=12;fontStyle=0;aspect=fixed;shape=mxgraph.aws4.illustration_devices;pointerEvents=1" vertex="1" parent="1">
          <mxGeometry x="40" y="-330" width="100" height="73" as="geometry" />
        </mxCell>
        <mxCell id="-DtNOmE0JYOXHVZAhYg3-21" style="edgeStyle=orthogonalEdgeStyle;rounded=0;orthogonalLoop=1;jettySize=auto;html=1;startArrow=classic;startFill=1;" edge="1" parent="1" source="-DtNOmE0JYOXHVZAhYg3-15" target="-DtNOmE0JYOXHVZAhYg3-17">
          <mxGeometry relative="1" as="geometry" />
        </mxCell>
        <mxCell id="-DtNOmE0JYOXHVZAhYg3-22" style="edgeStyle=orthogonalEdgeStyle;rounded=0;orthogonalLoop=1;jettySize=auto;html=1;startArrow=classic;startFill=1;" edge="1" parent="1" source="-DtNOmE0JYOXHVZAhYg3-15" target="-DtNOmE0JYOXHVZAhYg3-18">
          <mxGeometry relative="1" as="geometry" />
        </mxCell>
        <mxCell id="-DtNOmE0JYOXHVZAhYg3-15" value="Elastic Load Balancing" style="sketch=0;outlineConnect=0;fontColor=#232F3E;gradientColor=none;strokeColor=#ffffff;fillColor=#232F3E;dashed=0;verticalLabelPosition=middle;verticalAlign=bottom;align=center;html=1;whiteSpace=wrap;fontSize=10;fontStyle=1;spacing=3;shape=mxgraph.aws4.productIcon;prIcon=mxgraph.aws4.elastic_load_balancing;" vertex="1" parent="1">
          <mxGeometry x="250" y="-405" width="80" height="110" as="geometry" />
        </mxCell>
        <mxCell id="-DtNOmE0JYOXHVZAhYg3-56" style="edgeStyle=orthogonalEdgeStyle;rounded=0;orthogonalLoop=1;jettySize=auto;html=1;" edge="1" parent="1" source="-DtNOmE0JYOXHVZAhYg3-16" target="-DtNOmE0JYOXHVZAhYg3-48">
          <mxGeometry relative="1" as="geometry">
            <Array as="points">
              <mxPoint x="170" y="-515" />
            </Array>
          </mxGeometry>
        </mxCell>
        <mxCell id="-DtNOmE0JYOXHVZAhYg3-16" value="Amazon Cloudfront" style="sketch=0;outlineConnect=0;fontColor=#232F3E;gradientColor=none;strokeColor=#ffffff;fillColor=#232F3E;dashed=0;verticalLabelPosition=middle;verticalAlign=bottom;align=center;html=1;whiteSpace=wrap;fontSize=10;fontStyle=1;spacing=3;shape=mxgraph.aws4.productIcon;prIcon=mxgraph.aws4.cloudfront;" vertex="1" parent="1">
          <mxGeometry x="250" y="-570" width="80" height="110" as="geometry" />
        </mxCell>
        <mxCell id="-DtNOmE0JYOXHVZAhYg3-26" style="edgeStyle=orthogonalEdgeStyle;rounded=0;orthogonalLoop=1;jettySize=auto;html=1;startArrow=classic;startFill=1;endArrow=none;endFill=0;" edge="1" parent="1" source="-DtNOmE0JYOXHVZAhYg3-17" target="-DtNOmE0JYOXHVZAhYg3-25">
          <mxGeometry relative="1" as="geometry" />
        </mxCell>
        <mxCell id="-DtNOmE0JYOXHVZAhYg3-17" value="Serviço de Pesquisa" style="sketch=0;outlineConnect=0;fontColor=#232F3E;gradientColor=none;strokeColor=#ffffff;fillColor=#232F3E;dashed=0;verticalLabelPosition=middle;verticalAlign=bottom;align=center;html=1;whiteSpace=wrap;fontSize=10;fontStyle=1;spacing=3;shape=mxgraph.aws4.productIcon;prIcon=mxgraph.aws4.eks;" vertex="1" parent="1">
          <mxGeometry x="420" y="-450" width="80" height="110" as="geometry" />
        </mxCell>
        <mxCell id="-DtNOmE0JYOXHVZAhYg3-23" style="edgeStyle=orthogonalEdgeStyle;rounded=0;orthogonalLoop=1;jettySize=auto;html=1;startArrow=classic;startFill=1;" edge="1" parent="1" source="-DtNOmE0JYOXHVZAhYg3-18" target="-DtNOmE0JYOXHVZAhYg3-19">
          <mxGeometry relative="1" as="geometry" />
        </mxCell>
        <mxCell id="-DtNOmE0JYOXHVZAhYg3-32" style="edgeStyle=orthogonalEdgeStyle;rounded=0;orthogonalLoop=1;jettySize=auto;html=1;jumpStyle=gap;strokeColor=#B266FF;" edge="1" parent="1">
          <mxGeometry relative="1" as="geometry">
            <mxPoint x="500" y="-284" as="sourcePoint" />
            <mxPoint x="1070" y="-295.20000000000005" as="targetPoint" />
            <Array as="points">
              <mxPoint x="785" y="-284" />
              <mxPoint x="785" y="-300" />
              <mxPoint x="1070" y="-300" />
            </Array>
          </mxGeometry>
        </mxCell>
        <mxCell id="-DtNOmE0JYOXHVZAhYg3-34" style="edgeStyle=orthogonalEdgeStyle;rounded=0;orthogonalLoop=1;jettySize=auto;html=1;startArrow=classic;startFill=1;strokeColor=#007FFF;" edge="1" parent="1" source="-DtNOmE0JYOXHVZAhYg3-18" target="-DtNOmE0JYOXHVZAhYg3-33">
          <mxGeometry relative="1" as="geometry" />
        </mxCell>
        <mxCell id="-DtNOmE0JYOXHVZAhYg3-18" value="Serviço de Reservas" style="sketch=0;outlineConnect=0;fontColor=#232F3E;gradientColor=none;strokeColor=#ffffff;fillColor=#232F3E;dashed=0;verticalLabelPosition=middle;verticalAlign=bottom;align=center;html=1;whiteSpace=wrap;fontSize=10;fontStyle=1;spacing=3;shape=mxgraph.aws4.productIcon;prIcon=mxgraph.aws4.eks;" vertex="1" parent="1">
          <mxGeometry x="420" y="-330" width="80" height="110" as="geometry" />
        </mxCell>
        <mxCell id="-DtNOmE0JYOXHVZAhYg3-24" style="edgeStyle=orthogonalEdgeStyle;rounded=0;orthogonalLoop=1;jettySize=auto;html=1;startArrow=classic;startFill=1;" edge="1" parent="1" source="-DtNOmE0JYOXHVZAhYg3-19" target="-DtNOmE0JYOXHVZAhYg3-20">
          <mxGeometry relative="1" as="geometry" />
        </mxCell>
        <mxCell id="-DtNOmE0JYOXHVZAhYg3-19" value="Serviço de Pagamentos" style="sketch=0;outlineConnect=0;fontColor=#232F3E;gradientColor=none;strokeColor=#ffffff;fillColor=#232F3E;dashed=0;verticalLabelPosition=middle;verticalAlign=bottom;align=center;html=1;whiteSpace=wrap;fontSize=10;fontStyle=1;spacing=3;shape=mxgraph.aws4.productIcon;prIcon=mxgraph.aws4.eks;" vertex="1" parent="1">
          <mxGeometry x="420" y="-190" width="80" height="110" as="geometry" />
        </mxCell>
        <mxCell id="-DtNOmE0JYOXHVZAhYg3-20" value="Gateway de Pagamentos" style="rounded=1;whiteSpace=wrap;html=1;direction=south;dashed=1;fillColor=#f8cecc;strokeColor=#b85450;" vertex="1" parent="1">
          <mxGeometry x="395" y="-42" width="130" height="110" as="geometry" />
        </mxCell>
        <mxCell id="-DtNOmE0JYOXHVZAhYg3-25" value="Amazon Elasticsearch Service" style="sketch=0;outlineConnect=0;fontColor=#232F3E;gradientColor=none;strokeColor=#ffffff;fillColor=#232F3E;dashed=0;verticalLabelPosition=middle;verticalAlign=bottom;align=center;html=1;whiteSpace=wrap;fontSize=10;fontStyle=1;spacing=3;shape=mxgraph.aws4.productIcon;prIcon=mxgraph.aws4.elasticsearch_service;" vertex="1" parent="1">
          <mxGeometry x="650" y="-455" width="80" height="120" as="geometry" />
        </mxCell>
        <mxCell id="-DtNOmE0JYOXHVZAhYg3-27" value="Kafka" style="sketch=0;points=[[0,0,0],[0.25,0,0],[0.5,0,0],[0.75,0,0],[1,0,0],[0,1,0],[0.25,1,0],[0.5,1,0],[0.75,1,0],[1,1,0],[0,0.25,0],[0,0.5,0],[0,0.75,0],[1,0.25,0],[1,0.5,0],[1,0.75,0]];outlineConnect=0;fontColor=#232F3E;gradientColor=#945DF2;gradientDirection=north;fillColor=#5A30B5;strokeColor=#ffffff;dashed=0;verticalLabelPosition=bottom;verticalAlign=top;align=center;html=1;fontSize=12;fontStyle=0;aspect=fixed;shape=mxgraph.aws4.resourceIcon;resIcon=mxgraph.aws4.managed_streaming_for_kafka;" vertex="1" parent="1">
          <mxGeometry x="1087.5" y="-335" width="65" height="65" as="geometry" />
        </mxCell>
        <mxCell id="-DtNOmE0JYOXHVZAhYg3-29" style="edgeStyle=orthogonalEdgeStyle;rounded=0;orthogonalLoop=1;jettySize=auto;html=1;" edge="1" parent="1" source="-DtNOmE0JYOXHVZAhYg3-28" target="-DtNOmE0JYOXHVZAhYg3-25">
          <mxGeometry relative="1" as="geometry" />
        </mxCell>
        <mxCell id="-DtNOmE0JYOXHVZAhYg3-28" value="AWS Lambda&lt;br&gt;Consumidor Kafka&lt;br&gt;Pesquisa" style="sketch=0;outlineConnect=0;fontColor=#232F3E;gradientColor=none;strokeColor=#ffffff;fillColor=#232F3E;dashed=0;verticalLabelPosition=middle;verticalAlign=bottom;align=center;html=1;whiteSpace=wrap;fontSize=10;fontStyle=1;spacing=3;shape=mxgraph.aws4.productIcon;prIcon=mxgraph.aws4.lambda;" vertex="1" parent="1">
          <mxGeometry x="880" y="-462" width="80" height="135" as="geometry" />
        </mxCell>
        <mxCell id="-DtNOmE0JYOXHVZAhYg3-36" style="edgeStyle=orthogonalEdgeStyle;rounded=0;orthogonalLoop=1;jettySize=auto;html=1;strokeColor=#FF0000;" edge="1" parent="1" source="-DtNOmE0JYOXHVZAhYg3-33" target="-DtNOmE0JYOXHVZAhYg3-35">
          <mxGeometry relative="1" as="geometry" />
        </mxCell>
        <mxCell id="-DtNOmE0JYOXHVZAhYg3-33" value="Reserva de acomodações RDS&lt;br&gt;Multi-AZ DB Cluster" style="sketch=0;outlineConnect=0;fontColor=#232F3E;gradientColor=none;fillColor=#2E27AD;strokeColor=none;dashed=0;verticalLabelPosition=bottom;verticalAlign=top;align=center;html=1;fontSize=12;fontStyle=0;aspect=fixed;pointerEvents=1;shape=mxgraph.aws4.rds_multi_az_db_cluster;" vertex="1" parent="1">
          <mxGeometry x="690" y="-268" width="78" height="78" as="geometry" />
        </mxCell>
        <mxCell id="-DtNOmE0JYOXHVZAhYg3-38" style="edgeStyle=orthogonalEdgeStyle;rounded=0;orthogonalLoop=1;jettySize=auto;html=1;strokeColor=#FF0000;strokeWidth=1;" edge="1" parent="1" source="-DtNOmE0JYOXHVZAhYg3-35" target="-DtNOmE0JYOXHVZAhYg3-18">
          <mxGeometry relative="1" as="geometry">
            <mxPoint x="580" y="-330" as="targetPoint" />
            <Array as="points">
              <mxPoint x="630" y="-101" />
              <mxPoint x="630" y="-300" />
            </Array>
          </mxGeometry>
        </mxCell>
        <mxCell id="-DtNOmE0JYOXHVZAhYg3-54" style="edgeStyle=orthogonalEdgeStyle;rounded=0;orthogonalLoop=1;jettySize=auto;html=1;strokeColor=#FF0000;" edge="1" parent="1" source="-DtNOmE0JYOXHVZAhYg3-35" target="-DtNOmE0JYOXHVZAhYg3-52">
          <mxGeometry relative="1" as="geometry">
            <Array as="points">
              <mxPoint x="729" y="210" />
            </Array>
          </mxGeometry>
        </mxCell>
        <mxCell id="-DtNOmE0JYOXHVZAhYg3-35" value="Redis &lt;br&gt;Cache" style="image;sketch=0;aspect=fixed;html=1;points=[];align=center;fontSize=12;image=img/lib/mscae/Cache_Redis_Product.svg;" vertex="1" parent="1">
          <mxGeometry x="704" y="-122" width="50" height="42" as="geometry" />
        </mxCell>
        <mxCell id="-DtNOmE0JYOXHVZAhYg3-47" style="edgeStyle=orthogonalEdgeStyle;rounded=0;orthogonalLoop=1;jettySize=auto;html=1;" edge="1" parent="1" source="-DtNOmE0JYOXHVZAhYg3-44" target="-DtNOmE0JYOXHVZAhYg3-46">
          <mxGeometry relative="1" as="geometry" />
        </mxCell>
        <mxCell id="-DtNOmE0JYOXHVZAhYg3-44" value="AWS Lambda&lt;br&gt;Consumidor Kafka&lt;br&gt;Arquivar" style="sketch=0;outlineConnect=0;fontColor=#232F3E;gradientColor=none;strokeColor=#ffffff;fillColor=#232F3E;dashed=0;verticalLabelPosition=middle;verticalAlign=bottom;align=center;html=1;whiteSpace=wrap;fontSize=10;fontStyle=1;spacing=3;shape=mxgraph.aws4.productIcon;prIcon=mxgraph.aws4.lambda;" vertex="1" parent="1">
          <mxGeometry x="900" y="-225" width="80" height="135" as="geometry" />
        </mxCell>
        <mxCell id="-DtNOmE0JYOXHVZAhYg3-55" style="edgeStyle=orthogonalEdgeStyle;rounded=0;orthogonalLoop=1;jettySize=auto;html=1;strokeColor=#007FFF;" edge="1" parent="1" source="-DtNOmE0JYOXHVZAhYg3-46" target="-DtNOmE0JYOXHVZAhYg3-52">
          <mxGeometry relative="1" as="geometry">
            <Array as="points">
              <mxPoint x="940" y="190" />
            </Array>
          </mxGeometry>
        </mxCell>
        <mxCell id="-DtNOmE0JYOXHVZAhYg3-46" value="DynamoDB" style="outlineConnect=0;dashed=0;verticalLabelPosition=bottom;verticalAlign=top;align=center;html=1;shape=mxgraph.aws3.dynamo_db;fillColor=#2E73B8;gradientColor=none;" vertex="1" parent="1">
          <mxGeometry x="904" y="-13" width="72" height="81" as="geometry" />
        </mxCell>
        <mxCell id="-DtNOmE0JYOXHVZAhYg3-51" style="edgeStyle=orthogonalEdgeStyle;rounded=0;orthogonalLoop=1;jettySize=auto;html=1;entryX=0;entryY=0.455;entryDx=0;entryDy=0;entryPerimeter=0;startArrow=classic;startFill=1;" edge="1" parent="1" source="-DtNOmE0JYOXHVZAhYg3-48" target="-DtNOmE0JYOXHVZAhYg3-50">
          <mxGeometry relative="1" as="geometry" />
        </mxCell>
        <mxCell id="-DtNOmE0JYOXHVZAhYg3-48" value="App do cliente&lt;br&gt;Consultar Reservas" style="rounded=1;whiteSpace=wrap;html=1;direction=south;dashed=1;fillColor=#d5e8d4;strokeColor=#82b366;" vertex="1" parent="1">
          <mxGeometry x="41" y="110" width="130" height="240" as="geometry" />
        </mxCell>
        <mxCell id="-DtNOmE0JYOXHVZAhYg3-49" value="devices" style="sketch=0;outlineConnect=0;gradientColor=none;fontColor=#545B64;strokeColor=none;fillColor=#879196;dashed=0;verticalLabelPosition=bottom;verticalAlign=top;align=center;html=1;fontSize=12;fontStyle=0;aspect=fixed;shape=mxgraph.aws4.illustration_devices;pointerEvents=1" vertex="1" parent="1">
          <mxGeometry x="56" y="250" width="100" height="73" as="geometry" />
        </mxCell>
        <mxCell id="-DtNOmE0JYOXHVZAhYg3-53" style="edgeStyle=orthogonalEdgeStyle;rounded=0;orthogonalLoop=1;jettySize=auto;html=1;startArrow=classic;startFill=1;" edge="1" parent="1" source="-DtNOmE0JYOXHVZAhYg3-50" target="-DtNOmE0JYOXHVZAhYg3-52">
          <mxGeometry relative="1" as="geometry" />
        </mxCell>
        <mxCell id="-DtNOmE0JYOXHVZAhYg3-50" value="Elastic Load Balancing" style="sketch=0;outlineConnect=0;fontColor=#232F3E;gradientColor=none;strokeColor=#ffffff;fillColor=#232F3E;dashed=0;verticalLabelPosition=middle;verticalAlign=bottom;align=center;html=1;whiteSpace=wrap;fontSize=10;fontStyle=1;spacing=3;shape=mxgraph.aws4.productIcon;prIcon=mxgraph.aws4.elastic_load_balancing;" vertex="1" parent="1">
          <mxGeometry x="260" y="180" width="80" height="110" as="geometry" />
        </mxCell>
        <mxCell id="-DtNOmE0JYOXHVZAhYg3-52" value="Serviço de gerenciamento de reservas" style="sketch=0;outlineConnect=0;fontColor=#232F3E;gradientColor=none;strokeColor=#ffffff;fillColor=#232F3E;dashed=0;verticalLabelPosition=middle;verticalAlign=bottom;align=center;html=1;whiteSpace=wrap;fontSize=10;fontStyle=1;spacing=3;shape=mxgraph.aws4.productIcon;prIcon=mxgraph.aws4.eks;" vertex="1" parent="1">
          <mxGeometry x="430" y="170" width="80" height="130" as="geometry" />
        </mxCell>
      </root>
    </mxGraphModel>
  </diagram>
</mxfile>
